<svg id="visual" viewBox="0 0 960 540" width="960" height="540" xmlns="http://www.w3.org/2000/svg" xmlns:xlink="http://www.w3.org/1999/xlink" version="1.1"><rect x="0" y="0" width="960" height="540" fill="#001220"></rect><defs><linearGradient id="grad1_0" x1="43.8%" y1="0%" x2="100%" y2="100%"><stop offset="14.444444444444446%" stop-color="#fbae3c" stop-opacity="1"></stop><stop offset="85.55555555555554%" stop-color="#fbae3c" stop-opacity="1"></stop></linearGradient></defs><defs><linearGradient id="grad1_1" x1="43.8%" y1="0%" x2="100%" y2="100%"><stop offset="14.444444444444446%" stop-color="#fbae3c" stop-opacity="1"></stop><stop offset="85.55555555555554%" stop-color="#96446e" stop-opacity="1"></stop></linearGradient></defs><defs><linearGradient id="grad1_2" x1="43.8%" y1="0%" x2="100%" y2="100%"><stop offset="14.444444444444446%" stop-color="#001220" stop-opacity="1"></stop><stop offset="85.55555555555554%" stop-color="#96446e" stop-opacity="1"></stop></linearGradient></defs><defs><linearGradient id="grad2_0" x1="0%" y1="0%" x2="56.3%" y2="100%"><stop offset="14.444444444444446%" stop-color="#fbae3c" stop-opacity="1"></stop><stop offset="85.55555555555554%" stop-color="#fbae3c" stop-opacity="1"></stop></linearGradient></defs><defs><linearGradient id="grad2_1" x1="0%" y1="0%" x2="56.3%" y2="100%"><stop offset="14.444444444444446%" stop-color="#96446e" stop-opacity="1"></stop><stop offset="85.55555555555554%" stop-color="#fbae3c" stop-opacity="1"></stop></linearGradient></defs><defs><linearGradient id="grad2_2" x1="0%" y1="0%" x2="56.3%" y2="100%"><stop offset="14.444444444444446%" stop-color="#96446e" stop-opacity="1"></stop><stop offset="85.55555555555554%" stop-color="#001220" stop-opacity="1"></stop></linearGradient></defs><g transform="translate(960, 0)"><path d="M0 486C-66.1 482.4 -132.1 478.8 -186 449C-239.9 419.2 -281.6 363.2 -311.1 311.1C-340.7 259 -358.1 210.8 -385.3 159.6C-412.4 108.4 -449.2 54.2 -486 0L0 0Z" fill="#3d3056"></path><path d="M0 324C-44 321.6 -88.1 319.2 -124 299.3C-159.9 279.5 -187.7 242.2 -207.4 207.4C-227.1 172.7 -238.8 140.5 -256.8 106.4C-274.9 72.2 -299.5 36.1 -324 0L0 0Z" fill="#e1685e"></path><path d="M0 162C-22 160.8 -44 159.6 -62 149.7C-80 139.7 -93.9 121.1 -103.7 103.7C-113.6 86.3 -119.4 70.3 -128.4 53.2C-137.5 36.1 -149.7 18.1 -162 0L0 0Z" fill="#fbae3c"></path></g><g transform="translate(0, 540)"><path d="M0 -486C48.7 -438.2 97.3 -390.3 152.3 -367.7C207.3 -345.1 268.5 -347.6 322.4 -322.4C376.4 -297.3 423 -244.3 449 -186C475 -127.6 480.5 -63.8 486 0L0 0Z" fill="#3d3056"></path><path d="M0 -324C32.4 -292.1 64.9 -260.2 101.5 -245.1C138.2 -230 179 -231.7 215 -215C250.9 -198.2 282 -162.9 299.3 -124C316.7 -85.1 320.3 -42.5 324 0L0 0Z" fill="#e1685e"></path><path d="M0 -162C16.2 -146.1 32.4 -130.1 50.8 -122.6C69.1 -115 89.5 -115.9 107.5 -107.5C125.5 -99.1 141 -81.4 149.7 -62C158.3 -42.5 160.2 -21.3 162 0L0 0Z" fill="#fbae3c"></path></g></svg>